# xmcd
#
# Track frame offsets:
#	150
#	20757
#	42984
#	63365
#	84643
#	109305
#	137227
#	158952
#	201989
#	221432
#	243885
#	272663
#
# Disc length: 4355 seconds
#
# Revision: 2
# Processed by: cddbd v1.5.2PL0 Copyright (c) Steve Scherf et al.
# Submitted via: EasyCDDAExtractor 11.5.3.1
#
DISCID=b011010c
DTITLE=Carla Olson - The Ring Of Truth
DYEAR=2001
DGENRE=Blues
TTITLE0=Loserville
TTITLE1=Never Fade Away
TTITLE2=The Low Key
TTITLE3=The Ring Of Truth
TTITLE4=Locked Up Tight
TTITLE5=Sweeter
TTITLE6=Can You Please Crawl Out Your Window?
TTITLE7=Great Black Hole
TTITLE8=Wave Of The Hand
TTITLE9=Friends In Baltimore
TTITLE10=After You've Gone (Empty Blues)
TTITLE11=Winter
EXTD=
EXTT0=
EXTT1=
EXTT2=
EXTT3=
EXTT4=
EXTT5=
EXTT6=
EXTT7=
EXTT8=
EXTT9=
EXTT10=
EXTT11=
PLAYORDER=
